<?xml version="1.0" encoding="UTF-8" standalone="no"?>
<!DOCTYPE svg PUBLIC "-//W3C//DTD SVG 1.1//EN"
 "http://www.w3.org/Graphics/SVG/1.1/DTD/svg11.dtd">
<!-- Generated by graphviz version 2.40.1 (20161225.0304)
 -->
<!-- Title: G Pages: 1 -->
<svg width="332pt" height="260pt"
 viewBox="0.00 0.00 332.00 260.00" xmlns="http://www.w3.org/2000/svg" xmlns:xlink="http://www.w3.org/1999/xlink">
<g id="graph0" class="graph" transform="scale(1 1) rotate(0) translate(4 256)">
<title>G</title>
<polygon fill="#ffffff" stroke="transparent" points="-4,4 -4,-256 328,-256 328,4 -4,4"/>
<!-- A -->
<g id="node1" class="node">
<title>A</title>
<ellipse fill="none" stroke="#000000" cx="171" cy="-234" rx="27" ry="18"/>
<text text-anchor="middle" x="171" y="-230.3" font-family="Times,serif" font-size="14.00" fill="#000000">A</text>
</g>
<!-- B -->
<g id="node2" class="node">
<title>B</title>
<ellipse fill="none" stroke="#000000" cx="135" cy="-162" rx="27" ry="18"/>
<text text-anchor="middle" x="135" y="-158.3" font-family="Times,serif" font-size="14.00" fill="#000000">B</text>
</g>
<!-- A&#45;&gt;B -->
<g id="edge1" class="edge">
<title>A&#45;&gt;B</title>
<path fill="none" stroke="#000000" d="M162.2854,-216.5708C158.0403,-208.0807 152.8464,-197.6929 148.1337,-188.2674"/>
<polygon fill="#000000" stroke="#000000" points="151.237,-186.6477 143.6343,-179.2687 144.976,-189.7782 151.237,-186.6477"/>
</g>
<!-- C -->
<g id="node3" class="node">
<title>C</title>
<ellipse fill="none" stroke="#000000" cx="225" cy="-162" rx="27" ry="18"/>
<text text-anchor="middle" x="225" y="-158.3" font-family="Times,serif" font-size="14.00" fill="#000000">C</text>
</g>
<!-- A&#45;&gt;C -->
<g id="edge2" class="edge">
<title>A&#45;&gt;C</title>
<path fill="none" stroke="#000000" d="M183.2534,-217.6621C190.1577,-208.4564 198.9177,-196.7764 206.6285,-186.4953"/>
<polygon fill="#000000" stroke="#000000" points="209.595,-188.3733 212.7951,-178.2733 203.995,-184.1733 209.595,-188.3733"/>
</g>
<!-- D -->
<g id="node4" class="node">
<title>D</title>
<ellipse fill="none" stroke="#000000" cx="117" cy="-90" rx="27" ry="18"/>
<text text-anchor="middle" x="117" y="-86.3" font-family="Times,serif" font-size="14.00" fill="#000000">D</text>
</g>
<!-- B&#45;&gt;D -->
<g id="edge3" class="edge">
<title>B&#45;&gt;D</title>
<path fill="none" stroke="#000000" d="M130.5506,-144.2022C128.5602,-136.2406 126.1668,-126.6671 123.9489,-117.7957"/>
<polygon fill="#000000" stroke="#000000" points="127.2816,-116.6951 121.4606,-107.8425 120.4906,-118.3929 127.2816,-116.6951"/>
</g>
<!-- E -->
<g id="node5" class="node">
<title>E</title>
<ellipse fill="none" stroke="#000000" cx="225" cy="-90" rx="27" ry="18"/>
<text text-anchor="middle" x="225" y="-86.3" font-family="Times,serif" font-size="14.00" fill="#000000">E</text>
</g>
<!-- C&#45;&gt;E -->
<g id="edge4" class="edge">
<title>C&#45;&gt;E</title>
<path fill="none" stroke="#000000" d="M225,-143.8314C225,-136.131 225,-126.9743 225,-118.4166"/>
<polygon fill="#000000" stroke="#000000" points="228.5001,-118.4132 225,-108.4133 221.5001,-118.4133 228.5001,-118.4132"/>
</g>
<!-- F -->
<g id="node6" class="node">
<title>F</title>
<ellipse fill="none" stroke="#000000" cx="297" cy="-90" rx="27" ry="18"/>
<text text-anchor="middle" x="297" y="-86.3" font-family="Times,serif" font-size="14.00" fill="#000000">F</text>
</g>
<!-- C&#45;&gt;F -->
<g id="edge5" class="edge">
<title>C&#45;&gt;F</title>
<path fill="none" stroke="#000000" d="M240.2693,-146.7307C250.197,-136.803 263.3153,-123.6847 274.4363,-112.5637"/>
<polygon fill="#000000" stroke="#000000" points="277.1564,-114.7933 281.7527,-105.2473 272.2067,-109.8436 277.1564,-114.7933"/>
</g>
<!-- G -->
<g id="node8" class="node">
<title>G</title>
<ellipse fill="none" stroke="#000000" cx="27" cy="-18" rx="27" ry="18"/>
<text text-anchor="middle" x="27" y="-14.3" font-family="Times,serif" font-size="14.00" fill="#000000">G</text>
</g>
<!-- D&#45;&gt;G -->
<g id="edge7" class="edge">
<title>D&#45;&gt;G</title>
<path fill="none" stroke="#000000" d="M99.6471,-76.1177C86.2003,-65.3602 67.3761,-50.3009 52.259,-38.2072"/>
<polygon fill="#000000" stroke="#000000" points="54.2948,-35.3536 44.2996,-31.8397 49.9219,-40.8197 54.2948,-35.3536"/>
</g>
<!-- H -->
<g id="node9" class="node">
<title>H</title>
<ellipse fill="none" stroke="#000000" cx="99" cy="-18" rx="27" ry="18"/>
<text text-anchor="middle" x="99" y="-14.3" font-family="Times,serif" font-size="14.00" fill="#000000">H</text>
</g>
<!-- D&#45;&gt;H -->
<g id="edge8" class="edge">
<title>D&#45;&gt;H</title>
<path fill="none" stroke="#000000" d="M112.5506,-72.2022C110.5602,-64.2406 108.1668,-54.6671 105.9489,-45.7957"/>
<polygon fill="#000000" stroke="#000000" points="109.2816,-44.6951 103.4606,-35.8425 102.4906,-46.3929 109.2816,-44.6951"/>
</g>
<!-- I -->
<g id="node10" class="node">
<title>I</title>
<ellipse fill="none" stroke="#000000" cx="171" cy="-18" rx="27" ry="18"/>
<text text-anchor="middle" x="171" y="-14.3" font-family="Times,serif" font-size="14.00" fill="#000000">I</text>
</g>
<!-- D&#45;&gt;I -->
<g id="edge9" class="edge">
<title>D&#45;&gt;I</title>
<path fill="none" stroke="#000000" d="M129.2534,-73.6621C136.1577,-64.4564 144.9177,-52.7764 152.6285,-42.4953"/>
<polygon fill="#000000" stroke="#000000" points="155.595,-44.3733 158.7951,-34.2733 149.995,-40.1733 155.595,-44.3733"/>
</g>
<!-- J -->
<g id="node7" class="node">
<title>J</title>
<ellipse fill="none" stroke="#000000" cx="243" cy="-18" rx="27" ry="18"/>
<text text-anchor="middle" x="243" y="-14.3" font-family="Times,serif" font-size="14.00" fill="#000000">J</text>
</g>
<!-- E&#45;&gt;J -->
<g id="edge6" class="edge">
<title>E&#45;&gt;J</title>
<path fill="none" stroke="#000000" d="M229.4494,-72.2022C231.4398,-64.2406 233.8332,-54.6671 236.0511,-45.7957"/>
<polygon fill="#000000" stroke="#000000" points="239.5094,-46.3929 238.5394,-35.8425 232.7184,-44.6951 239.5094,-46.3929"/>
</g>
</g>

<g transform="translate(0.000000,17.000000) scale(0.100000,-0.100000)"
fill="#000000" stroke="none">
<path d="M21 157 c-29 -35 -16 -97 20 -97 15 0 19 -5 15 -16 -3 -9 -6 -20 -6
-25 0 -5 -4 -9 -10 -9 -14 0 -12 27 3 33 6 3 2 6 -10 6 -30 1 -31 -35 -3 -44
28 -9 47 9 55 51 3 20 9 42 12 50 3 8 -1 14 -11 14 -9 0 -16 -8 -16 -19 0 -26
-15 -34 -30 -16 -13 16 -6 48 16 70 14 13 13 15 -4 15 -11 0 -25 -6 -31 -13z"/>
<path d="M80 150 c0 -13 5 -20 13 -17 6 2 12 10 12 17 0 7 -6 15 -12 18 -8 2
-13 -5 -13 -18z"/>
<path d="M347 164 c-13 -13 -7 -24 14 -24 11 0 19 5 17 12 -5 14 -22 21 -31
12z"/>
<path d="M103 85 c-9 -40 -8 -45 8 -45 13 0 19 9 21 33 2 24 7 31 21 29 10 -2
17 3 17 13 0 10 -9 15 -28 15 -26 0 -30 -5 -39 -45z"/>
<path d="M175 101 c-24 -48 -13 -59 64 -60 63 -1 69 1 79 25 15 31 15 64 1 64
-6 0 -8 -8 -5 -18 4 -10 -1 -27 -10 -38 -14 -18 -15 -17 -9 19 5 29 3 37 -9
37 -9 0 -18 -13 -22 -35 -3 -19 -10 -35 -14 -35 -4 0 -4 16 0 35 8 35 8 35
-26 35 -27 0 -36 -6 -49 -29z m47 -6 c-5 -28 -22 -44 -22 -21 0 21 11 46 20
46 4 0 5 -11 2 -25z"/>
<path d="M340 116 c0 -7 -3 -28 -6 -45 -6 -26 -3 -31 13 -31 10 0 25 6 32 12
11 10 13 10 7 1 -5 -9 3 -13 28 -13 25 0 36 4 36 15 0 8 -4 15 -10 15 -5 0
-10 -4 -10 -10 0 -5 -5 -10 -11 -10 -6 0 -2 12 9 28 36 51 36 52 -2 52 -25 0
-36 -4 -36 -15 0 -8 5 -15 10 -15 6 0 10 5 10 12 0 6 3 9 6 6 9 -10 -19 -46
-39 -52 -17 -4 -18 -1 -13 30 6 27 4 34 -9 34 -8 0 -15 -6 -15 -14z"/>
<path d="M472 118 c-7 -7 -12 -27 -12 -46 0 -30 2 -33 27 -30 17 2 32 12 39
27 7 13 18 28 26 33 10 8 9 8 -4 4 -12 -3 -18 0 -18 9 0 18 -41 20 -58 3z m29
-51 c-13 -13 -15 11 -4 40 7 16 8 15 11 -6 2 -13 -1 -28 -7 -34z"/>
</g>
</svg>
