<?xml version="1.0" encoding="UTF-8" standalone="no"?>
<!DOCTYPE svg PUBLIC "-//W3C//DTD SVG 1.1//EN"
 "http://www.w3.org/Graphics/SVG/1.1/DTD/svg11.dtd">
<!-- Generated by graphviz version 2.40.1 (20161225.0304)
 -->
<!-- Title: G Pages: 1 -->
<svg width="476pt" height="260pt"
 viewBox="0.00 0.00 475.50 260.00" xmlns="http://www.w3.org/2000/svg" xmlns:xlink="http://www.w3.org/1999/xlink">
<g id="graph0" class="graph" transform="scale(1 1) rotate(0) translate(4 256)">
<title>G</title>
<polygon fill="#ffffff" stroke="transparent" points="-4,4 -4,-256 471.5,-256 471.5,4 -4,4"/>
<!-- ArrayList -->
<g id="node1" class="node">
<title>ArrayList</title>
<polygon fill="none" stroke="#000000" points="85,-108 0,-108 0,-72 85,-72 85,-108"/>
<text text-anchor="middle" x="42.5" y="-86.3" font-family="Times,serif" font-size="14.00" fill="#000000">ArrayList</text>
</g>
<!-- LinkedList -->
<g id="node2" class="node">
<title>LinkedList</title>
<polygon fill="none" stroke="#000000" points="197.5,-108 103.5,-108 103.5,-72 197.5,-72 197.5,-108"/>
<text text-anchor="middle" x="150.5" y="-86.3" font-family="Times,serif" font-size="14.00" fill="#000000">LinkedList</text>
</g>
<!-- Vector -->
<g id="node3" class="node">
<title>Vector</title>
<polygon fill="none" stroke="#000000" points="279,-108 216,-108 216,-72 279,-72 279,-108"/>
<text text-anchor="middle" x="247.5" y="-86.3" font-family="Times,serif" font-size="14.00" fill="#000000">Vector</text>
</g>
<!-- HashSet -->
<g id="node4" class="node">
<title>HashSet</title>
<polygon fill="none" stroke="#000000" points="375.5,-108 297.5,-108 297.5,-72 375.5,-72 375.5,-108"/>
<text text-anchor="middle" x="336.5" y="-86.3" font-family="Times,serif" font-size="14.00" fill="#000000">HashSet</text>
</g>
<!-- LinkedHashSet -->
<g id="node5" class="node">
<title>LinkedHashSet</title>
<polygon fill="none" stroke="#000000" points="400.5,-36 272.5,-36 272.5,0 400.5,0 400.5,-36"/>
<text text-anchor="middle" x="336.5" y="-14.3" font-family="Times,serif" font-size="14.00" fill="#000000">LinkedHashSet</text>
</g>
<!-- HashSet&#45;&gt;LinkedHashSet -->
<g id="edge8" class="edge">
<title>HashSet&#45;&gt;LinkedHashSet</title>
<path fill="none" stroke="#000000" d="M336.5,-71.8314C336.5,-64.131 336.5,-54.9743 336.5,-46.4166"/>
<polygon fill="#000000" stroke="#000000" points="340.0001,-46.4132 336.5,-36.4133 333.0001,-46.4133 340.0001,-46.4132"/>
</g>
<!-- TreeSet -->
<g id="node6" class="node">
<title>TreeSet</title>
<polygon fill="none" stroke="#000000" points="467.5,-108 393.5,-108 393.5,-72 467.5,-72 467.5,-108"/>
<text text-anchor="middle" x="430.5" y="-86.3" font-family="Times,serif" font-size="14.00" fill="#000000">TreeSet</text>
</g>
<!-- Collection（阉割版） -->
<g id="node7" class="node">
<title>Collection（阉割版）</title>
<ellipse fill="none" stroke="#000000" cx="243.5" cy="-234" rx="104.7816" ry="18"/>
<text text-anchor="middle" x="243.5" y="-230.3" font-family="Times,serif" font-size="14.00" fill="#000000">Collection（阉割版）</text>
</g>
<!-- List接口 -->
<g id="node8" class="node">
<title>List接口</title>
<ellipse fill="none" stroke="#000000" cx="188.5" cy="-162" rx="47.3916" ry="18"/>
<text text-anchor="middle" x="188.5" y="-158.3" font-family="Times,serif" font-size="14.00" fill="#000000">List接口</text>
</g>
<!-- Collection（阉割版）&#45;&gt;List接口 -->
<g id="edge1" class="edge">
<title>Collection（阉割版）&#45;&gt;List接口</title>
<path fill="none" stroke="#000000" d="M229.6212,-215.8314C223.0915,-207.2835 215.1912,-196.9412 208.0675,-187.6156"/>
<polygon fill="#000000" stroke="#000000" points="210.657,-185.2398 201.8052,-179.4177 205.0943,-189.4891 210.657,-185.2398"/>
</g>
<!-- Set接口 -->
<g id="node9" class="node">
<title>Set接口</title>
<ellipse fill="none" stroke="#000000" cx="336.5" cy="-162" rx="44.6926" ry="18"/>
<text text-anchor="middle" x="336.5" y="-158.3" font-family="Times,serif" font-size="14.00" fill="#000000">Set接口</text>
</g>
<!-- Collection（阉割版）&#45;&gt;Set接口 -->
<g id="edge2" class="edge">
<title>Collection（阉割版）&#45;&gt;Set接口</title>
<path fill="none" stroke="#000000" d="M266.4888,-216.2022C278.9611,-206.5463 294.4958,-194.5193 307.7611,-184.2495"/>
<polygon fill="#000000" stroke="#000000" points="309.915,-187.0083 315.6797,-178.119 305.6298,-181.4732 309.915,-187.0083"/>
</g>
<!-- List接口&#45;&gt;ArrayList -->
<g id="edge3" class="edge">
<title>List接口&#45;&gt;ArrayList</title>
<path fill="none" stroke="#000000" d="M159.3056,-147.6028C138.9561,-137.5674 111.3998,-123.978 88.1629,-112.5187"/>
<polygon fill="#000000" stroke="#000000" points="89.6813,-109.3651 79.1645,-108.0811 86.5852,-115.6432 89.6813,-109.3651"/>
</g>
<!-- List接口&#45;&gt;LinkedList -->
<g id="edge4" class="edge">
<title>List接口&#45;&gt;LinkedList</title>
<path fill="none" stroke="#000000" d="M179.1067,-144.2022C174.8004,-136.0428 169.6005,-126.1904 164.8217,-117.1358"/>
<polygon fill="#000000" stroke="#000000" points="167.8121,-115.3033 160.0491,-108.0931 161.6214,-118.5707 167.8121,-115.3033"/>
</g>
<!-- List接口&#45;&gt;Vector -->
<g id="edge5" class="edge">
<title>List接口&#45;&gt;Vector</title>
<path fill="none" stroke="#000000" d="M202.7823,-144.5708C209.7986,-136.0085 218.3965,-125.5161 226.1721,-116.0272"/>
<polygon fill="#000000" stroke="#000000" points="229.102,-117.9738 232.7331,-108.0206 223.6877,-113.537 229.102,-117.9738"/>
</g>
<!-- Set接口&#45;&gt;HashSet -->
<g id="edge6" class="edge">
<title>Set接口&#45;&gt;HashSet</title>
<path fill="none" stroke="#000000" d="M336.5,-143.8314C336.5,-136.131 336.5,-126.9743 336.5,-118.4166"/>
<polygon fill="#000000" stroke="#000000" points="340.0001,-118.4132 336.5,-108.4133 333.0001,-118.4133 340.0001,-118.4132"/>
</g>
<!-- Set接口&#45;&gt;TreeSet -->
<g id="edge7" class="edge">
<title>Set接口&#45;&gt;TreeSet</title>
<path fill="none" stroke="#000000" d="M357.3616,-146.0209C369.4554,-136.7575 384.9348,-124.901 398.5362,-114.4829"/>
<polygon fill="#000000" stroke="#000000" points="400.9048,-117.0775 406.7153,-108.2181 396.6482,-111.5203 400.9048,-117.0775"/>
</g>
</g>

<g transform="translate(0.000000,17.000000) scale(0.100000,-0.100000)"
fill="#000000" stroke="none">
<path d="M21 157 c-29 -35 -16 -97 20 -97 15 0 19 -5 15 -16 -3 -9 -6 -20 -6
-25 0 -5 -4 -9 -10 -9 -14 0 -12 27 3 33 6 3 2 6 -10 6 -30 1 -31 -35 -3 -44
28 -9 47 9 55 51 3 20 9 42 12 50 3 8 -1 14 -11 14 -9 0 -16 -8 -16 -19 0 -26
-15 -34 -30 -16 -13 16 -6 48 16 70 14 13 13 15 -4 15 -11 0 -25 -6 -31 -13z"/>
<path d="M80 150 c0 -13 5 -20 13 -17 6 2 12 10 12 17 0 7 -6 15 -12 18 -8 2
-13 -5 -13 -18z"/>
<path d="M347 164 c-13 -13 -7 -24 14 -24 11 0 19 5 17 12 -5 14 -22 21 -31
12z"/>
<path d="M103 85 c-9 -40 -8 -45 8 -45 13 0 19 9 21 33 2 24 7 31 21 29 10 -2
17 3 17 13 0 10 -9 15 -28 15 -26 0 -30 -5 -39 -45z"/>
<path d="M175 101 c-24 -48 -13 -59 64 -60 63 -1 69 1 79 25 15 31 15 64 1 64
-6 0 -8 -8 -5 -18 4 -10 -1 -27 -10 -38 -14 -18 -15 -17 -9 19 5 29 3 37 -9
37 -9 0 -18 -13 -22 -35 -3 -19 -10 -35 -14 -35 -4 0 -4 16 0 35 8 35 8 35
-26 35 -27 0 -36 -6 -49 -29z m47 -6 c-5 -28 -22 -44 -22 -21 0 21 11 46 20
46 4 0 5 -11 2 -25z"/>
<path d="M340 116 c0 -7 -3 -28 -6 -45 -6 -26 -3 -31 13 -31 10 0 25 6 32 12
11 10 13 10 7 1 -5 -9 3 -13 28 -13 25 0 36 4 36 15 0 8 -4 15 -10 15 -5 0
-10 -4 -10 -10 0 -5 -5 -10 -11 -10 -6 0 -2 12 9 28 36 51 36 52 -2 52 -25 0
-36 -4 -36 -15 0 -8 5 -15 10 -15 6 0 10 5 10 12 0 6 3 9 6 6 9 -10 -19 -46
-39 -52 -17 -4 -18 -1 -13 30 6 27 4 34 -9 34 -8 0 -15 -6 -15 -14z"/>
<path d="M472 118 c-7 -7 -12 -27 -12 -46 0 -30 2 -33 27 -30 17 2 32 12 39
27 7 13 18 28 26 33 10 8 9 8 -4 4 -12 -3 -18 0 -18 9 0 18 -41 20 -58 3z m29
-51 c-13 -13 -15 11 -4 40 7 16 8 15 11 -6 2 -13 -1 -28 -7 -34z"/>
</g>
</svg>
