<?xml version="1.0" encoding="UTF-8" standalone="no"?>
<!DOCTYPE svg PUBLIC "-//W3C//DTD SVG 1.1//EN"
 "http://www.w3.org/Graphics/SVG/1.1/DTD/svg11.dtd">
<!-- Generated by graphviz version 2.40.1 (20161225.0304)
 -->
<!-- Title: G Pages: 1 -->
<svg width="261pt" height="188pt"
 viewBox="0.00 0.00 261.00 188.00" xmlns="http://www.w3.org/2000/svg" xmlns:xlink="http://www.w3.org/1999/xlink">
<g id="graph0" class="graph" transform="scale(1 1) rotate(0) translate(4 184)">
<title>G</title>
<polygon fill="#ffffff" stroke="transparent" points="-4,4 -4,-184 257,-184 257,4 -4,4"/>
<!-- 集合 -->
<g id="node1" class="node">
<title>集合</title>
<polygon fill="none" stroke="#000000" points="183.5,-180 129.5,-180 129.5,-144 183.5,-144 183.5,-180"/>
<text text-anchor="middle" x="156.5" y="-158.3" font-family="Times,serif" font-size="14.00" fill="#000000">集合</text>
</g>
<!-- Collection单列 -->
<g id="node2" class="node">
<title>Collection单列</title>
<polygon fill="none" stroke="#000000" points="157.5,-108 39.5,-108 39.5,-72 157.5,-72 157.5,-108"/>
<text text-anchor="middle" x="98.5" y="-86.3" font-family="Times,serif" font-size="14.00" fill="#000000">Collection单列</text>
</g>
<!-- 集合&#45;&gt;Collection单列 -->
<g id="edge1" class="edge">
<title>集合&#45;&gt;Collection单列</title>
<path fill="none" stroke="#000000" d="M141.8642,-143.8314C135.1839,-135.5386 127.1432,-125.557 119.8096,-116.4533"/>
<polygon fill="#000000" stroke="#000000" points="122.3319,-114.0052 113.3329,-108.4133 116.8806,-118.3965 122.3319,-114.0052"/>
</g>
<!-- Map双列 -->
<g id="node3" class="node">
<title>Map双列</title>
<polygon fill="none" stroke="#000000" points="253,-108 176,-108 176,-72 253,-72 253,-108"/>
<text text-anchor="middle" x="214.5" y="-86.3" font-family="Times,serif" font-size="14.00" fill="#000000">Map双列</text>
</g>
<!-- 集合&#45;&gt;Map双列 -->
<g id="edge2" class="edge">
<title>集合&#45;&gt;Map双列</title>
<path fill="none" stroke="#000000" d="M171.1358,-143.8314C177.8161,-135.5386 185.8568,-125.557 193.1904,-116.4533"/>
<polygon fill="#000000" stroke="#000000" points="196.1194,-118.3965 199.6671,-108.4133 190.6681,-114.0052 196.1194,-118.3965"/>
</g>
<!-- List可重复 -->
<g id="node4" class="node">
<title>List可重复</title>
<polygon fill="none" stroke="#000000" points="87,-36 0,-36 0,0 87,0 87,-36"/>
<text text-anchor="middle" x="43.5" y="-14.3" font-family="Times,serif" font-size="14.00" fill="#000000">List可重复</text>
</g>
<!-- Collection单列&#45;&gt;List可重复 -->
<g id="edge3" class="edge">
<title>Collection单列&#45;&gt;List可重复</title>
<path fill="none" stroke="#000000" d="M84.6212,-71.8314C78.2864,-63.5386 70.6616,-53.557 63.7074,-44.4533"/>
<polygon fill="#000000" stroke="#000000" points="66.4175,-42.2353 57.5657,-36.4133 60.8548,-46.4847 66.4175,-42.2353"/>
</g>
<!-- Set不可重复 -->
<g id="node5" class="node">
<title>Set不可重复</title>
<polygon fill="none" stroke="#000000" points="203.5,-36 105.5,-36 105.5,0 203.5,0 203.5,-36"/>
<text text-anchor="middle" x="154.5" y="-14.3" font-family="Times,serif" font-size="14.00" fill="#000000">Set不可重复</text>
</g>
<!-- Collection单列&#45;&gt;Set不可重复 -->
<g id="edge4" class="edge">
<title>Collection单列&#45;&gt;Set不可重复</title>
<path fill="none" stroke="#000000" d="M112.6312,-71.8314C119.0811,-63.5386 126.8445,-53.557 133.9252,-44.4533"/>
<polygon fill="#000000" stroke="#000000" points="136.8019,-46.4556 140.1786,-36.4133 131.2764,-42.158 136.8019,-46.4556"/>
</g>
</g>

<g transform="translate(0.000000,17.000000) scale(0.100000,-0.100000)"
fill="#000000" stroke="none">
<path d="M21 157 c-29 -35 -16 -97 20 -97 15 0 19 -5 15 -16 -3 -9 -6 -20 -6
-25 0 -5 -4 -9 -10 -9 -14 0 -12 27 3 33 6 3 2 6 -10 6 -30 1 -31 -35 -3 -44
28 -9 47 9 55 51 3 20 9 42 12 50 3 8 -1 14 -11 14 -9 0 -16 -8 -16 -19 0 -26
-15 -34 -30 -16 -13 16 -6 48 16 70 14 13 13 15 -4 15 -11 0 -25 -6 -31 -13z"/>
<path d="M80 150 c0 -13 5 -20 13 -17 6 2 12 10 12 17 0 7 -6 15 -12 18 -8 2
-13 -5 -13 -18z"/>
<path d="M347 164 c-13 -13 -7 -24 14 -24 11 0 19 5 17 12 -5 14 -22 21 -31
12z"/>
<path d="M103 85 c-9 -40 -8 -45 8 -45 13 0 19 9 21 33 2 24 7 31 21 29 10 -2
17 3 17 13 0 10 -9 15 -28 15 -26 0 -30 -5 -39 -45z"/>
<path d="M175 101 c-24 -48 -13 -59 64 -60 63 -1 69 1 79 25 15 31 15 64 1 64
-6 0 -8 -8 -5 -18 4 -10 -1 -27 -10 -38 -14 -18 -15 -17 -9 19 5 29 3 37 -9
37 -9 0 -18 -13 -22 -35 -3 -19 -10 -35 -14 -35 -4 0 -4 16 0 35 8 35 8 35
-26 35 -27 0 -36 -6 -49 -29z m47 -6 c-5 -28 -22 -44 -22 -21 0 21 11 46 20
46 4 0 5 -11 2 -25z"/>
<path d="M340 116 c0 -7 -3 -28 -6 -45 -6 -26 -3 -31 13 -31 10 0 25 6 32 12
11 10 13 10 7 1 -5 -9 3 -13 28 -13 25 0 36 4 36 15 0 8 -4 15 -10 15 -5 0
-10 -4 -10 -10 0 -5 -5 -10 -11 -10 -6 0 -2 12 9 28 36 51 36 52 -2 52 -25 0
-36 -4 -36 -15 0 -8 5 -15 10 -15 6 0 10 5 10 12 0 6 3 9 6 6 9 -10 -19 -46
-39 -52 -17 -4 -18 -1 -13 30 6 27 4 34 -9 34 -8 0 -15 -6 -15 -14z"/>
<path d="M472 118 c-7 -7 -12 -27 -12 -46 0 -30 2 -33 27 -30 17 2 32 12 39
27 7 13 18 28 26 33 10 8 9 8 -4 4 -12 -3 -18 0 -18 9 0 18 -41 20 -58 3z m29
-51 c-13 -13 -15 11 -4 40 7 16 8 15 11 -6 2 -13 -1 -28 -7 -34z"/>
</g>
</svg>
