<?xml version="1.0" encoding="UTF-8" standalone="no"?>
<!DOCTYPE svg PUBLIC "-//W3C//DTD SVG 1.1//EN"
 "http://www.w3.org/Graphics/SVG/1.1/DTD/svg11.dtd">
<!-- Generated by graphviz version 2.40.1 (20161225.0304)
 -->
<!-- Title: G Pages: 1 -->
<svg width="1032pt" height="260pt"
 viewBox="0.00 0.00 1031.50 260.00" xmlns="http://www.w3.org/2000/svg" xmlns:xlink="http://www.w3.org/1999/xlink">
<g id="graph0" class="graph" transform="scale(1 1) rotate(0) translate(4 256)">
<title>G</title>
<polygon fill="#ffffff" stroke="transparent" points="-4,4 -4,-256 1027.5,-256 1027.5,4 -4,4"/>
<!-- 数据类型 -->
<g id="node1" class="node">
<title>数据类型</title>
<polygon fill="none" stroke="#000000" points="681.5,-252 607.5,-252 607.5,-216 681.5,-216 681.5,-252"/>
<text text-anchor="middle" x="644.5" y="-230.3" font-family="Times,serif" font-size="14.00" fill="#000000">数据类型</text>
</g>
<!-- 基本数据结构 -->
<g id="node2" class="node">
<title>基本数据结构</title>
<polygon fill="none" stroke="#000000" points="635.5,-180 533.5,-180 533.5,-144 635.5,-144 635.5,-180"/>
<text text-anchor="middle" x="584.5" y="-158.3" font-family="Times,serif" font-size="14.00" fill="#000000">基本数据结构</text>
</g>
<!-- 数据类型&#45;&gt;基本数据结构 -->
<g id="edge1" class="edge">
<title>数据类型&#45;&gt;基本数据结构</title>
<path fill="none" stroke="#000000" d="M629.3595,-215.8314C622.3783,-207.454 613.9609,-197.3531 606.3124,-188.1749"/>
<polygon fill="#000000" stroke="#000000" points="608.9351,-185.8548 599.8444,-180.4133 603.5575,-190.3362 608.9351,-185.8548"/>
</g>
<!-- 引用数据结构 -->
<g id="node3" class="node">
<title>引用数据结构</title>
<polygon fill="none" stroke="#000000" points="814.5,-180 712.5,-180 712.5,-144 814.5,-144 814.5,-180"/>
<text text-anchor="middle" x="763.5" y="-158.3" font-family="Times,serif" font-size="14.00" fill="#000000">引用数据结构</text>
</g>
<!-- 数据类型&#45;&gt;引用数据结构 -->
<g id="edge2" class="edge">
<title>数据类型&#45;&gt;引用数据结构</title>
<path fill="none" stroke="#000000" d="M674.5287,-215.8314C689.7496,-206.6221 708.4128,-195.3301 724.7083,-185.4706"/>
<polygon fill="#000000" stroke="#000000" points="726.7369,-188.3341 733.4809,-180.1628 723.1132,-182.345 726.7369,-188.3341"/>
</g>
<!-- 数值型 -->
<g id="node4" class="node">
<title>数值型</title>
<polygon fill="none" stroke="#000000" points="463,-108 404,-108 404,-72 463,-72 463,-108"/>
<text text-anchor="middle" x="433.5" y="-86.3" font-family="Times,serif" font-size="14.00" fill="#000000">数值型</text>
</g>
<!-- 基本数据结构&#45;&gt;数值型 -->
<g id="edge3" class="edge">
<title>基本数据结构&#45;&gt;数值型</title>
<path fill="none" stroke="#000000" d="M546.3963,-143.8314C523.6669,-132.9935 494.888,-119.2711 472.0756,-108.3937"/>
<polygon fill="#000000" stroke="#000000" points="473.5505,-105.2195 463.0177,-104.0747 470.5377,-111.5379 473.5505,-105.2195"/>
</g>
<!-- 非数值型 -->
<g id="node5" class="node">
<title>非数值型</title>
<polygon fill="none" stroke="#000000" points="621.5,-108 547.5,-108 547.5,-72 621.5,-72 621.5,-108"/>
<text text-anchor="middle" x="584.5" y="-86.3" font-family="Times,serif" font-size="14.00" fill="#000000">非数值型</text>
</g>
<!-- 基本数据结构&#45;&gt;非数值型 -->
<g id="edge4" class="edge">
<title>基本数据结构&#45;&gt;非数值型</title>
<path fill="none" stroke="#000000" d="M584.5,-143.8314C584.5,-136.131 584.5,-126.9743 584.5,-118.4166"/>
<polygon fill="#000000" stroke="#000000" points="588.0001,-118.4132 584.5,-108.4133 581.0001,-118.4133 588.0001,-118.4132"/>
</g>
<!-- 类（class） -->
<g id="node10" class="node">
<title>类（class）</title>
<polygon fill="none" stroke="#000000" points="735,-108 640,-108 640,-72 735,-72 735,-108"/>
<text text-anchor="middle" x="687.5" y="-86.3" font-family="Times,serif" font-size="14.00" fill="#000000">类（class）</text>
</g>
<!-- 引用数据结构&#45;&gt;类（class） -->
<g id="edge9" class="edge">
<title>引用数据结构&#45;&gt;类（class）</title>
<path fill="none" stroke="#000000" d="M744.322,-143.8314C735.1412,-135.1337 723.9994,-124.5783 714.0224,-115.1265"/>
<polygon fill="#000000" stroke="#000000" points="716.3385,-112.4995 706.6719,-108.1628 711.5243,-117.5811 716.3385,-112.4995"/>
</g>
<!-- 接口（interface） -->
<g id="node11" class="node">
<title>接口（interface）</title>
<polygon fill="none" stroke="#000000" points="891.5,-108 753.5,-108 753.5,-72 891.5,-72 891.5,-108"/>
<text text-anchor="middle" x="822.5" y="-86.3" font-family="Times,serif" font-size="14.00" fill="#000000">接口（interface）</text>
</g>
<!-- 引用数据结构&#45;&gt;接口（interface） -->
<g id="edge10" class="edge">
<title>引用数据结构&#45;&gt;接口（interface）</title>
<path fill="none" stroke="#000000" d="M778.3882,-143.8314C785.253,-135.454 793.5301,-125.3531 801.0511,-116.1749"/>
<polygon fill="#000000" stroke="#000000" points="803.7803,-118.3665 807.4114,-108.4133 798.3659,-113.9297 803.7803,-118.3665"/>
</g>
<!-- 数组（Array） -->
<g id="node12" class="node">
<title>数组（Array）</title>
<polygon fill="none" stroke="#000000" points="1023.5,-108 909.5,-108 909.5,-72 1023.5,-72 1023.5,-108"/>
<text text-anchor="middle" x="966.5" y="-86.3" font-family="Times,serif" font-size="14.00" fill="#000000">数组（Array）</text>
</g>
<!-- 引用数据结构&#45;&gt;数组（Array） -->
<g id="edge11" class="edge">
<title>引用数据结构&#45;&gt;数组（Array）</title>
<path fill="none" stroke="#000000" d="M814.4634,-143.9243C842.2147,-134.0815 876.7328,-121.8386 905.8614,-111.5073"/>
<polygon fill="#000000" stroke="#000000" points="907.2608,-114.7246 915.5156,-108.0831 904.9208,-108.1273 907.2608,-114.7246"/>
</g>
<!-- 整数（bytes，short，int，long） -->
<g id="node6" class="node">
<title>整数（bytes，short，int，long）</title>
<polygon fill="none" stroke="#000000" points="243,-36 0,-36 0,0 243,0 243,-36"/>
<text text-anchor="middle" x="121.5" y="-14.3" font-family="Times,serif" font-size="14.00" fill="#000000">整数（bytes，short，int，long）</text>
</g>
<!-- 数值型&#45;&gt;整数（bytes，short，int，long） -->
<g id="edge5" class="edge">
<title>数值型&#45;&gt;整数（bytes，short，int，long）</title>
<path fill="none" stroke="#000000" d="M403.8665,-83.1615C359.6659,-72.9614 274.6846,-53.3503 209.4498,-38.2961"/>
<polygon fill="#000000" stroke="#000000" points="210.0986,-34.8539 199.5676,-36.0156 208.5245,-41.6747 210.0986,-34.8539"/>
</g>
<!-- 浮点数（float，double） -->
<g id="node7" class="node">
<title>浮点数（float，double）</title>
<polygon fill="none" stroke="#000000" points="443.5,-36 261.5,-36 261.5,0 443.5,0 443.5,-36"/>
<text text-anchor="middle" x="352.5" y="-14.3" font-family="Times,serif" font-size="14.00" fill="#000000">浮点数（float，double）</text>
</g>
<!-- 数值型&#45;&gt;浮点数（float，double） -->
<g id="edge6" class="edge">
<title>数值型&#45;&gt;浮点数（float，double）</title>
<path fill="none" stroke="#000000" d="M413.0603,-71.8314C403.1795,-63.0485 391.1676,-52.3712 380.455,-42.8489"/>
<polygon fill="#000000" stroke="#000000" points="382.7326,-40.1906 372.9332,-36.1628 378.082,-45.4224 382.7326,-40.1906"/>
</g>
<!-- 字符（char） -->
<g id="node8" class="node">
<title>字符（char）</title>
<polygon fill="none" stroke="#000000" points="567.5,-36 461.5,-36 461.5,0 567.5,0 567.5,-36"/>
<text text-anchor="middle" x="514.5" y="-14.3" font-family="Times,serif" font-size="14.00" fill="#000000">字符（char）</text>
</g>
<!-- 数值型&#45;&gt;字符（char） -->
<g id="edge7" class="edge">
<title>数值型&#45;&gt;字符（char）</title>
<path fill="none" stroke="#000000" d="M453.9397,-71.8314C463.8205,-63.0485 475.8324,-52.3712 486.545,-42.8489"/>
<polygon fill="#000000" stroke="#000000" points="488.918,-45.4224 494.0668,-36.1628 484.2674,-40.1906 488.918,-45.4224"/>
</g>
<!-- 布尔（boolean） -->
<g id="node9" class="node">
<title>布尔（boolean）</title>
<polygon fill="none" stroke="#000000" points="715,-36 586,-36 586,0 715,0 715,-36"/>
<text text-anchor="middle" x="650.5" y="-14.3" font-family="Times,serif" font-size="14.00" fill="#000000">布尔（boolean）</text>
</g>
<!-- 非数值型&#45;&gt;布尔（boolean） -->
<g id="edge8" class="edge">
<title>非数值型&#45;&gt;布尔（boolean）</title>
<path fill="none" stroke="#000000" d="M601.1546,-71.8314C608.9114,-63.3694 618.2802,-53.1489 626.761,-43.8971"/>
<polygon fill="#000000" stroke="#000000" points="629.4439,-46.1499 633.6212,-36.4133 624.2838,-41.4198 629.4439,-46.1499"/>
</g>
</g>

<g transform="translate(0.000000,17.000000) scale(0.100000,-0.100000)"
fill="#000000" stroke="none">
<path d="M21 157 c-29 -35 -16 -97 20 -97 15 0 19 -5 15 -16 -3 -9 -6 -20 -6
-25 0 -5 -4 -9 -10 -9 -14 0 -12 27 3 33 6 3 2 6 -10 6 -30 1 -31 -35 -3 -44
28 -9 47 9 55 51 3 20 9 42 12 50 3 8 -1 14 -11 14 -9 0 -16 -8 -16 -19 0 -26
-15 -34 -30 -16 -13 16 -6 48 16 70 14 13 13 15 -4 15 -11 0 -25 -6 -31 -13z"/>
<path d="M80 150 c0 -13 5 -20 13 -17 6 2 12 10 12 17 0 7 -6 15 -12 18 -8 2
-13 -5 -13 -18z"/>
<path d="M347 164 c-13 -13 -7 -24 14 -24 11 0 19 5 17 12 -5 14 -22 21 -31
12z"/>
<path d="M103 85 c-9 -40 -8 -45 8 -45 13 0 19 9 21 33 2 24 7 31 21 29 10 -2
17 3 17 13 0 10 -9 15 -28 15 -26 0 -30 -5 -39 -45z"/>
<path d="M175 101 c-24 -48 -13 -59 64 -60 63 -1 69 1 79 25 15 31 15 64 1 64
-6 0 -8 -8 -5 -18 4 -10 -1 -27 -10 -38 -14 -18 -15 -17 -9 19 5 29 3 37 -9
37 -9 0 -18 -13 -22 -35 -3 -19 -10 -35 -14 -35 -4 0 -4 16 0 35 8 35 8 35
-26 35 -27 0 -36 -6 -49 -29z m47 -6 c-5 -28 -22 -44 -22 -21 0 21 11 46 20
46 4 0 5 -11 2 -25z"/>
<path d="M340 116 c0 -7 -3 -28 -6 -45 -6 -26 -3 -31 13 -31 10 0 25 6 32 12
11 10 13 10 7 1 -5 -9 3 -13 28 -13 25 0 36 4 36 15 0 8 -4 15 -10 15 -5 0
-10 -4 -10 -10 0 -5 -5 -10 -11 -10 -6 0 -2 12 9 28 36 51 36 52 -2 52 -25 0
-36 -4 -36 -15 0 -8 5 -15 10 -15 6 0 10 5 10 12 0 6 3 9 6 6 9 -10 -19 -46
-39 -52 -17 -4 -18 -1 -13 30 6 27 4 34 -9 34 -8 0 -15 -6 -15 -14z"/>
<path d="M472 118 c-7 -7 -12 -27 -12 -46 0 -30 2 -33 27 -30 17 2 32 12 39
27 7 13 18 28 26 33 10 8 9 8 -4 4 -12 -3 -18 0 -18 9 0 18 -41 20 -58 3z m29
-51 c-13 -13 -15 11 -4 40 7 16 8 15 11 -6 2 -13 -1 -28 -7 -34z"/>
</g>
</svg>
