<?xml version="1.0" encoding="UTF-8" standalone="no"?>
<!DOCTYPE svg PUBLIC "-//W3C//DTD SVG 1.1//EN"
 "http://www.w3.org/Graphics/SVG/1.1/DTD/svg11.dtd">
<!-- Generated by graphviz version 2.40.1 (20161225.0304)
 -->
<!-- Title: G Pages: 1 -->
<svg width="358pt" height="404pt"
 viewBox="0.00 0.00 358.34 404.00" xmlns="http://www.w3.org/2000/svg" xmlns:xlink="http://www.w3.org/1999/xlink">
<g id="graph0" class="graph" transform="scale(1 1) rotate(0) translate(4 400)">
<title>G</title>
<polygon fill="#ffffff" stroke="transparent" points="-4,4 -4,-400 354.3408,-400 354.3408,4 -4,4"/>
<!-- 表示数据范围从小到大 -->
<g id="node1" class="node">
<title>表示数据范围从小到大</title>
<ellipse fill="none" stroke="#000000" cx="103.3408" cy="-378" rx="103.1819" ry="18"/>
<text text-anchor="middle" x="103.3408" y="-374.3" font-family="Times,serif" font-size="14.00" fill="#000000">表示数据范围从小到大</text>
</g>
<!-- byte -->
<g id="node2" class="node">
<title>byte</title>
<polygon fill="none" stroke="#000000" points="278.3408,-396 224.3408,-396 224.3408,-360 278.3408,-360 278.3408,-396"/>
<text text-anchor="middle" x="251.3408" y="-374.3" font-family="Times,serif" font-size="14.00" fill="#000000">byte</text>
</g>
<!-- short -->
<g id="node3" class="node">
<title>short</title>
<polygon fill="none" stroke="#000000" points="278.3408,-324 224.3408,-324 224.3408,-288 278.3408,-288 278.3408,-324"/>
<text text-anchor="middle" x="251.3408" y="-302.3" font-family="Times,serif" font-size="14.00" fill="#000000">short</text>
</g>
<!-- byte&#45;&gt;short -->
<g id="edge1" class="edge">
<title>byte&#45;&gt;short</title>
<path fill="none" stroke="#000000" d="M251.3408,-359.8314C251.3408,-352.131 251.3408,-342.9743 251.3408,-334.4166"/>
<polygon fill="#000000" stroke="#000000" points="254.8409,-334.4132 251.3408,-324.4133 247.8409,-334.4133 254.8409,-334.4132"/>
</g>
<!-- init -->
<g id="node5" class="node">
<title>init</title>
<polygon fill="none" stroke="#000000" points="314.3408,-252 260.3408,-252 260.3408,-216 314.3408,-216 314.3408,-252"/>
<text text-anchor="middle" x="287.3408" y="-230.3" font-family="Times,serif" font-size="14.00" fill="#000000">init</text>
</g>
<!-- short&#45;&gt;init -->
<g id="edge2" class="edge">
<title>short&#45;&gt;init</title>
<path fill="none" stroke="#000000" d="M260.4252,-287.8314C264.4023,-279.8771 269.1563,-270.369 273.5547,-261.5723"/>
<polygon fill="#000000" stroke="#000000" points="276.7925,-262.9228 278.1342,-252.4133 270.5315,-259.7923 276.7925,-262.9228"/>
</g>
<!-- char -->
<g id="node4" class="node">
<title>char</title>
<polygon fill="none" stroke="#000000" points="350.3408,-324 296.3408,-324 296.3408,-288 350.3408,-288 350.3408,-324"/>
<text text-anchor="middle" x="323.3408" y="-302.3" font-family="Times,serif" font-size="14.00" fill="#000000">char</text>
</g>
<!-- char&#45;&gt;init -->
<g id="edge3" class="edge">
<title>char&#45;&gt;init</title>
<path fill="none" stroke="#000000" d="M314.2565,-287.8314C310.2794,-279.8771 305.5253,-270.369 301.127,-261.5723"/>
<polygon fill="#000000" stroke="#000000" points="304.1502,-259.7923 296.5475,-252.4133 297.8892,-262.9228 304.1502,-259.7923"/>
</g>
<!-- long -->
<g id="node6" class="node">
<title>long</title>
<polygon fill="none" stroke="#000000" points="314.3408,-180 260.3408,-180 260.3408,-144 314.3408,-144 314.3408,-180"/>
<text text-anchor="middle" x="287.3408" y="-158.3" font-family="Times,serif" font-size="14.00" fill="#000000">long</text>
</g>
<!-- init&#45;&gt;long -->
<g id="edge4" class="edge">
<title>init&#45;&gt;long</title>
<path fill="none" stroke="#000000" d="M287.3408,-215.8314C287.3408,-208.131 287.3408,-198.9743 287.3408,-190.4166"/>
<polygon fill="#000000" stroke="#000000" points="290.8409,-190.4132 287.3408,-180.4133 283.8409,-190.4133 290.8409,-190.4132"/>
</g>
<!-- float -->
<g id="node7" class="node">
<title>float</title>
<polygon fill="none" stroke="#000000" points="314.3408,-108 260.3408,-108 260.3408,-72 314.3408,-72 314.3408,-108"/>
<text text-anchor="middle" x="287.3408" y="-86.3" font-family="Times,serif" font-size="14.00" fill="#000000">float</text>
</g>
<!-- long&#45;&gt;float -->
<g id="edge5" class="edge">
<title>long&#45;&gt;float</title>
<path fill="none" stroke="#000000" d="M287.3408,-143.8314C287.3408,-136.131 287.3408,-126.9743 287.3408,-118.4166"/>
<polygon fill="#000000" stroke="#000000" points="290.8409,-118.4132 287.3408,-108.4133 283.8409,-118.4133 290.8409,-118.4132"/>
</g>
<!-- double -->
<g id="node8" class="node">
<title>double</title>
<polygon fill="none" stroke="#000000" points="319.8408,-36 254.8408,-36 254.8408,0 319.8408,0 319.8408,-36"/>
<text text-anchor="middle" x="287.3408" y="-14.3" font-family="Times,serif" font-size="14.00" fill="#000000">double</text>
</g>
<!-- float&#45;&gt;double -->
<g id="edge6" class="edge">
<title>float&#45;&gt;double</title>
<path fill="none" stroke="#000000" d="M287.3408,-71.8314C287.3408,-64.131 287.3408,-54.9743 287.3408,-46.4166"/>
<polygon fill="#000000" stroke="#000000" points="290.8409,-46.4132 287.3408,-36.4133 283.8409,-46.4133 290.8409,-46.4132"/>
</g>
</g>

<g transform="translate(0.000000,17.000000) scale(0.100000,-0.100000)"
fill="#000000" stroke="none">
<path d="M21 157 c-29 -35 -16 -97 20 -97 15 0 19 -5 15 -16 -3 -9 -6 -20 -6
-25 0 -5 -4 -9 -10 -9 -14 0 -12 27 3 33 6 3 2 6 -10 6 -30 1 -31 -35 -3 -44
28 -9 47 9 55 51 3 20 9 42 12 50 3 8 -1 14 -11 14 -9 0 -16 -8 -16 -19 0 -26
-15 -34 -30 -16 -13 16 -6 48 16 70 14 13 13 15 -4 15 -11 0 -25 -6 -31 -13z"/>
<path d="M80 150 c0 -13 5 -20 13 -17 6 2 12 10 12 17 0 7 -6 15 -12 18 -8 2
-13 -5 -13 -18z"/>
<path d="M347 164 c-13 -13 -7 -24 14 -24 11 0 19 5 17 12 -5 14 -22 21 -31
12z"/>
<path d="M103 85 c-9 -40 -8 -45 8 -45 13 0 19 9 21 33 2 24 7 31 21 29 10 -2
17 3 17 13 0 10 -9 15 -28 15 -26 0 -30 -5 -39 -45z"/>
<path d="M175 101 c-24 -48 -13 -59 64 -60 63 -1 69 1 79 25 15 31 15 64 1 64
-6 0 -8 -8 -5 -18 4 -10 -1 -27 -10 -38 -14 -18 -15 -17 -9 19 5 29 3 37 -9
37 -9 0 -18 -13 -22 -35 -3 -19 -10 -35 -14 -35 -4 0 -4 16 0 35 8 35 8 35
-26 35 -27 0 -36 -6 -49 -29z m47 -6 c-5 -28 -22 -44 -22 -21 0 21 11 46 20
46 4 0 5 -11 2 -25z"/>
<path d="M340 116 c0 -7 -3 -28 -6 -45 -6 -26 -3 -31 13 -31 10 0 25 6 32 12
11 10 13 10 7 1 -5 -9 3 -13 28 -13 25 0 36 4 36 15 0 8 -4 15 -10 15 -5 0
-10 -4 -10 -10 0 -5 -5 -10 -11 -10 -6 0 -2 12 9 28 36 51 36 52 -2 52 -25 0
-36 -4 -36 -15 0 -8 5 -15 10 -15 6 0 10 5 10 12 0 6 3 9 6 6 9 -10 -19 -46
-39 -52 -17 -4 -18 -1 -13 30 6 27 4 34 -9 34 -8 0 -15 -6 -15 -14z"/>
<path d="M472 118 c-7 -7 -12 -27 -12 -46 0 -30 2 -33 27 -30 17 2 32 12 39
27 7 13 18 28 26 33 10 8 9 8 -4 4 -12 -3 -18 0 -18 9 0 18 -41 20 -58 3z m29
-51 c-13 -13 -15 11 -4 40 7 16 8 15 11 -6 2 -13 -1 -28 -7 -34z"/>
</g>
</svg>
