<?xml version="1.0" encoding="UTF-8" standalone="no"?>
<!DOCTYPE svg PUBLIC "-//W3C//DTD SVG 1.1//EN"
 "http://www.w3.org/Graphics/SVG/1.1/DTD/svg11.dtd">
<!-- Generated by graphviz version 2.40.1 (20161225.0304)
 -->
<!-- Title: G Pages: 1 -->
<svg width="540pt" height="188pt"
 viewBox="0.00 0.00 539.50 188.00" xmlns="http://www.w3.org/2000/svg" xmlns:xlink="http://www.w3.org/1999/xlink">
<g id="graph0" class="graph" transform="scale(1 1) rotate(0) translate(4 184)">
<title>G</title>
<polygon fill="#ffffff" stroke="transparent" points="-4,4 -4,-184 535.5,-184 535.5,4 -4,4"/>
<!-- ArrayList -->
<g id="node1" class="node">
<title>ArrayList</title>
<polygon fill="none" stroke="#000000" points="85,-36 0,-36 0,0 85,0 85,-36"/>
<text text-anchor="middle" x="42.5" y="-14.3" font-family="Times,serif" font-size="14.00" fill="#000000">ArrayList</text>
</g>
<!-- LinkedList -->
<g id="node2" class="node">
<title>LinkedList</title>
<polygon fill="none" stroke="#000000" points="197.5,-36 103.5,-36 103.5,0 197.5,0 197.5,-36"/>
<text text-anchor="middle" x="150.5" y="-14.3" font-family="Times,serif" font-size="14.00" fill="#000000">LinkedList</text>
</g>
<!-- HashSet -->
<g id="node3" class="node">
<title>HashSet</title>
<polygon fill="none" stroke="#000000" points="293.5,-36 215.5,-36 215.5,0 293.5,0 293.5,-36"/>
<text text-anchor="middle" x="254.5" y="-14.3" font-family="Times,serif" font-size="14.00" fill="#000000">HashSet</text>
</g>
<!-- LinkedHashSet -->
<g id="node4" class="node">
<title>LinkedHashSet</title>
<polygon fill="none" stroke="#000000" points="439.5,-36 311.5,-36 311.5,0 439.5,0 439.5,-36"/>
<text text-anchor="middle" x="375.5" y="-14.3" font-family="Times,serif" font-size="14.00" fill="#000000">LinkedHashSet</text>
</g>
<!-- TreeSet -->
<g id="node5" class="node">
<title>TreeSet</title>
<polygon fill="none" stroke="#000000" points="531.5,-36 457.5,-36 457.5,0 531.5,0 531.5,-36"/>
<text text-anchor="middle" x="494.5" y="-14.3" font-family="Times,serif" font-size="14.00" fill="#000000">TreeSet</text>
</g>
<!-- Collection -->
<g id="node6" class="node">
<title>Collection</title>
<ellipse fill="none" stroke="#000000" cx="203.5" cy="-162" rx="57.6901" ry="18"/>
<text text-anchor="middle" x="203.5" y="-158.3" font-family="Times,serif" font-size="14.00" fill="#000000">Collection</text>
</g>
<!-- list接口 -->
<g id="node7" class="node">
<title>list接口</title>
<ellipse fill="none" stroke="#000000" cx="150.5" cy="-90" rx="44.393" ry="18"/>
<text text-anchor="middle" x="150.5" y="-86.3" font-family="Times,serif" font-size="14.00" fill="#000000">list接口</text>
</g>
<!-- Collection&#45;&gt;list接口 -->
<g id="edge1" class="edge">
<title>Collection&#45;&gt;list接口</title>
<path fill="none" stroke="#000000" d="M190.3989,-144.2022C184.0621,-135.5938 176.3383,-125.1011 169.3804,-115.6488"/>
<polygon fill="#000000" stroke="#000000" points="172.0144,-113.3231 163.2675,-107.3446 166.3771,-117.4728 172.0144,-113.3231"/>
</g>
<!-- Set接口 -->
<g id="node8" class="node">
<title>Set接口</title>
<ellipse fill="none" stroke="#000000" cx="316.5" cy="-90" rx="44.6926" ry="18"/>
<text text-anchor="middle" x="316.5" y="-86.3" font-family="Times,serif" font-size="14.00" fill="#000000">Set接口</text>
</g>
<!-- Collection&#45;&gt;Set接口 -->
<g id="edge2" class="edge">
<title>Collection&#45;&gt;Set接口</title>
<path fill="none" stroke="#000000" d="M229.1414,-145.6621C245.3331,-135.3453 266.4022,-121.9207 283.7922,-110.8404"/>
<polygon fill="#000000" stroke="#000000" points="285.9526,-113.614 292.5054,-105.2886 282.191,-107.7105 285.9526,-113.614"/>
</g>
<!-- list接口&#45;&gt;ArrayList -->
<g id="edge3" class="edge">
<title>list接口&#45;&gt;ArrayList</title>
<path fill="none" stroke="#000000" d="M127.3313,-74.5542C113.1068,-65.0712 94.5899,-52.7266 78.4868,-41.9912"/>
<polygon fill="#000000" stroke="#000000" points="80.0935,-38.8558 69.8315,-36.221 76.2105,-44.6802 80.0935,-38.8558"/>
</g>
<!-- list接口&#45;&gt;LinkedList -->
<g id="edge4" class="edge">
<title>list接口&#45;&gt;LinkedList</title>
<path fill="none" stroke="#000000" d="M150.5,-71.8314C150.5,-64.131 150.5,-54.9743 150.5,-46.4166"/>
<polygon fill="#000000" stroke="#000000" points="154.0001,-46.4132 150.5,-36.4133 147.0001,-46.4133 154.0001,-46.4132"/>
</g>
<!-- Set接口&#45;&gt;HashSet -->
<g id="edge5" class="edge">
<title>Set接口&#45;&gt;HashSet</title>
<path fill="none" stroke="#000000" d="M301.8069,-72.937C294.3653,-64.2952 285.1711,-53.6181 276.873,-43.9816"/>
<polygon fill="#000000" stroke="#000000" points="279.349,-41.493 270.1715,-36.1992 274.0446,-46.0607 279.349,-41.493"/>
</g>
<!-- Set接口&#45;&gt;LinkedHashSet -->
<g id="edge6" class="edge">
<title>Set接口&#45;&gt;LinkedHashSet</title>
<path fill="none" stroke="#000000" d="M330.7823,-72.5708C337.7986,-64.0085 346.3965,-53.5161 354.1721,-44.0272"/>
<polygon fill="#000000" stroke="#000000" points="357.102,-45.9738 360.7331,-36.0206 351.6877,-41.537 357.102,-45.9738"/>
</g>
<!-- Set接口&#45;&gt;TreeSet -->
<g id="edge7" class="edge">
<title>Set接口&#45;&gt;TreeSet</title>
<path fill="none" stroke="#000000" d="M348.3228,-77.1278C376.0536,-65.9109 416.6273,-49.4991 447.9967,-36.8103"/>
<polygon fill="#000000" stroke="#000000" points="449.4543,-39.9963 457.4122,-33.0018 446.8294,-33.5071 449.4543,-39.9963"/>
</g>
</g>

<g transform="translate(0.000000,17.000000) scale(0.100000,-0.100000)"
fill="#000000" stroke="none">
<path d="M21 157 c-29 -35 -16 -97 20 -97 15 0 19 -5 15 -16 -3 -9 -6 -20 -6
-25 0 -5 -4 -9 -10 -9 -14 0 -12 27 3 33 6 3 2 6 -10 6 -30 1 -31 -35 -3 -44
28 -9 47 9 55 51 3 20 9 42 12 50 3 8 -1 14 -11 14 -9 0 -16 -8 -16 -19 0 -26
-15 -34 -30 -16 -13 16 -6 48 16 70 14 13 13 15 -4 15 -11 0 -25 -6 -31 -13z"/>
<path d="M80 150 c0 -13 5 -20 13 -17 6 2 12 10 12 17 0 7 -6 15 -12 18 -8 2
-13 -5 -13 -18z"/>
<path d="M347 164 c-13 -13 -7 -24 14 -24 11 0 19 5 17 12 -5 14 -22 21 -31
12z"/>
<path d="M103 85 c-9 -40 -8 -45 8 -45 13 0 19 9 21 33 2 24 7 31 21 29 10 -2
17 3 17 13 0 10 -9 15 -28 15 -26 0 -30 -5 -39 -45z"/>
<path d="M175 101 c-24 -48 -13 -59 64 -60 63 -1 69 1 79 25 15 31 15 64 1 64
-6 0 -8 -8 -5 -18 4 -10 -1 -27 -10 -38 -14 -18 -15 -17 -9 19 5 29 3 37 -9
37 -9 0 -18 -13 -22 -35 -3 -19 -10 -35 -14 -35 -4 0 -4 16 0 35 8 35 8 35
-26 35 -27 0 -36 -6 -49 -29z m47 -6 c-5 -28 -22 -44 -22 -21 0 21 11 46 20
46 4 0 5 -11 2 -25z"/>
<path d="M340 116 c0 -7 -3 -28 -6 -45 -6 -26 -3 -31 13 -31 10 0 25 6 32 12
11 10 13 10 7 1 -5 -9 3 -13 28 -13 25 0 36 4 36 15 0 8 -4 15 -10 15 -5 0
-10 -4 -10 -10 0 -5 -5 -10 -11 -10 -6 0 -2 12 9 28 36 51 36 52 -2 52 -25 0
-36 -4 -36 -15 0 -8 5 -15 10 -15 6 0 10 5 10 12 0 6 3 9 6 6 9 -10 -19 -46
-39 -52 -17 -4 -18 -1 -13 30 6 27 4 34 -9 34 -8 0 -15 -6 -15 -14z"/>
<path d="M472 118 c-7 -7 -12 -27 -12 -46 0 -30 2 -33 27 -30 17 2 32 12 39
27 7 13 18 28 26 33 10 8 9 8 -4 4 -12 -3 -18 0 -18 9 0 18 -41 20 -58 3z m29
-51 c-13 -13 -15 11 -4 40 7 16 8 15 11 -6 2 -13 -1 -28 -7 -34z"/>
</g>
</svg>
