<?xml version="1.0" encoding="UTF-8" standalone="no"?>
<!DOCTYPE svg PUBLIC "-//W3C//DTD SVG 1.1//EN"
 "http://www.w3.org/Graphics/SVG/1.1/DTD/svg11.dtd">
<!-- Generated by graphviz version 2.40.1 (20161225.0304)
 -->
<!-- Title: G Pages: 1 -->
<svg width="510pt" height="188pt"
 viewBox="0.00 0.00 509.50 188.00" xmlns="http://www.w3.org/2000/svg" xmlns:xlink="http://www.w3.org/1999/xlink">
<g id="graph0" class="graph" transform="scale(1 1) rotate(0) translate(4 184)">
<title>G</title>
<polygon fill="#ffffff" stroke="transparent" points="-4,4 -4,-184 505.5,-184 505.5,4 -4,4"/>
<!-- New -->
<g id="node1" class="node">
<title>New</title>
<polygon fill="none" stroke="#000000" points="350,-180 296,-180 296,-144 350,-144 350,-180"/>
<text text-anchor="middle" x="323" y="-158.3" font-family="Times,serif" font-size="14.00" fill="#000000">New</text>
</g>
<!-- RUNNABLE -->
<g id="node2" class="node">
<title>RUNNABLE</title>
<polygon fill="none" stroke="#000000" points="376,-108 270,-108 270,-72 376,-72 376,-108"/>
<text text-anchor="middle" x="323" y="-86.3" font-family="Times,serif" font-size="14.00" fill="#000000">RUNNABLE</text>
</g>
<!-- New&#45;&gt;RUNNABLE -->
<g id="edge1" class="edge">
<title>New&#45;&gt;RUNNABLE</title>
<path fill="none" stroke="#000000" d="M323,-143.8314C323,-136.131 323,-126.9743 323,-118.4166"/>
<polygon fill="#000000" stroke="#000000" points="326.5001,-118.4132 323,-108.4133 319.5001,-118.4133 326.5001,-118.4132"/>
</g>
<!-- BLOCKED -->
<g id="node3" class="node">
<title>BLOCKED</title>
<polygon fill="none" stroke="#000000" points="92,-36 0,-36 0,0 92,0 92,-36"/>
<text text-anchor="middle" x="46" y="-14.3" font-family="Times,serif" font-size="14.00" fill="#000000">BLOCKED</text>
</g>
<!-- RUNNABLE&#45;&gt;BLOCKED -->
<g id="edge2" class="edge">
<title>RUNNABLE&#45;&gt;BLOCKED</title>
<path fill="none" stroke="#000000" d="M269.9238,-79.8651C225.3812,-70.2863 160.1647,-55.0163 102.3141,-38.9044"/>
<polygon fill="#000000" stroke="#000000" points="102.9276,-35.4411 92.3533,-36.1006 101.0309,-42.1793 102.9276,-35.4411"/>
</g>
<!-- TERMINATED -->
<g id="node4" class="node">
<title>TERMINATED</title>
<polygon fill="none" stroke="#000000" points="232,-36 110,-36 110,0 232,0 232,-36"/>
<text text-anchor="middle" x="171" y="-14.3" font-family="Times,serif" font-size="14.00" fill="#000000">TERMINATED</text>
</g>
<!-- RUNNABLE&#45;&gt;TERMINATED -->
<g id="edge4" class="edge">
<title>RUNNABLE&#45;&gt;TERMINATED</title>
<path fill="none" stroke="#000000" d="M284.644,-71.8314C264.4956,-62.2874 239.6248,-50.5065 218.2917,-40.4013"/>
<polygon fill="#000000" stroke="#000000" points="219.6159,-37.1558 209.0802,-36.038 216.6193,-43.482 219.6159,-37.1558"/>
</g>
<!-- TIMED_WAITING -->
<g id="node5" class="node">
<title>TIMED_WAITING</title>
<polygon fill="none" stroke="#000000" points="396,-36 250,-36 250,0 396,0 396,-36"/>
<text text-anchor="middle" x="323" y="-14.3" font-family="Times,serif" font-size="14.00" fill="#000000">TIMED_WAITING</text>
</g>
<!-- RUNNABLE&#45;&gt;TIMED_WAITING -->
<g id="edge5" class="edge">
<title>RUNNABLE&#45;&gt;TIMED_WAITING</title>
<path fill="none" stroke="#000000" d="M317.0476,-71.8314C316.2972,-64.131 316.0763,-54.9743 316.3849,-46.4166"/>
<polygon fill="#000000" stroke="#000000" points="319.8792,-46.6161 317.024,-36.4133 312.8935,-46.1697 319.8792,-46.6161"/>
</g>
<!-- WAITING -->
<g id="node6" class="node">
<title>WAITING</title>
<polygon fill="none" stroke="#000000" points="501.5,-36 414.5,-36 414.5,0 501.5,0 501.5,-36"/>
<text text-anchor="middle" x="458" y="-14.3" font-family="Times,serif" font-size="14.00" fill="#000000">WAITING</text>
</g>
<!-- RUNNABLE&#45;&gt;WAITING -->
<g id="edge7" class="edge">
<title>RUNNABLE&#45;&gt;WAITING</title>
<path fill="none" stroke="#000000" d="M351.1138,-71.8314C367.8626,-62.4089 389.4923,-50.8062 408.9434,-40.7883"/>
<polygon fill="#000000" stroke="#000000" points="410.6815,-43.8306 417.9929,-36.1628 407.4956,-37.5976 410.6815,-43.8306"/>
</g>
<!-- BLOCKED&#45;&gt;RUNNABLE -->
<g id="edge3" class="edge">
<title>BLOCKED&#45;&gt;RUNNABLE</title>
<path fill="none" stroke="#000000" d="M92.0412,-30.5936C98.1011,-32.4829 104.2024,-34.3489 110,-36 160.1505,-50.2825 217.3363,-64.1362 259.8884,-74.2352"/>
<polygon fill="#000000" stroke="#000000" points="259.2917,-77.6907 269.8292,-76.59 260.9052,-70.8792 259.2917,-77.6907"/>
</g>
<!-- TIMED_WAITING&#45;&gt;RUNNABLE -->
<g id="edge6" class="edge">
<title>TIMED_WAITING&#45;&gt;RUNNABLE</title>
<path fill="none" stroke="#000000" d="M328.976,-36.4133C329.7071,-44.0593 329.9203,-53.1084 329.6155,-61.5726"/>
<polygon fill="#000000" stroke="#000000" points="326.1048,-61.6264 328.9524,-71.8314 333.0902,-62.078 326.1048,-61.6264"/>
</g>
<!-- WAITING&#45;&gt;RUNNABLE -->
<g id="edge8" class="edge">
<title>WAITING&#45;&gt;RUNNABLE</title>
<path fill="none" stroke="#000000" d="M429.8965,-36.1628C413.1497,-45.5843 391.5206,-57.187 372.0686,-67.2055"/>
<polygon fill="#000000" stroke="#000000" points="370.3299,-64.1635 363.0186,-71.8314 373.5158,-70.3965 370.3299,-64.1635"/>
</g>
</g>

<g transform="translate(0.000000,17.000000) scale(0.100000,-0.100000)"
fill="#000000" stroke="none">
<path d="M21 157 c-29 -35 -16 -97 20 -97 15 0 19 -5 15 -16 -3 -9 -6 -20 -6
-25 0 -5 -4 -9 -10 -9 -14 0 -12 27 3 33 6 3 2 6 -10 6 -30 1 -31 -35 -3 -44
28 -9 47 9 55 51 3 20 9 42 12 50 3 8 -1 14 -11 14 -9 0 -16 -8 -16 -19 0 -26
-15 -34 -30 -16 -13 16 -6 48 16 70 14 13 13 15 -4 15 -11 0 -25 -6 -31 -13z"/>
<path d="M80 150 c0 -13 5 -20 13 -17 6 2 12 10 12 17 0 7 -6 15 -12 18 -8 2
-13 -5 -13 -18z"/>
<path d="M347 164 c-13 -13 -7 -24 14 -24 11 0 19 5 17 12 -5 14 -22 21 -31
12z"/>
<path d="M103 85 c-9 -40 -8 -45 8 -45 13 0 19 9 21 33 2 24 7 31 21 29 10 -2
17 3 17 13 0 10 -9 15 -28 15 -26 0 -30 -5 -39 -45z"/>
<path d="M175 101 c-24 -48 -13 -59 64 -60 63 -1 69 1 79 25 15 31 15 64 1 64
-6 0 -8 -8 -5 -18 4 -10 -1 -27 -10 -38 -14 -18 -15 -17 -9 19 5 29 3 37 -9
37 -9 0 -18 -13 -22 -35 -3 -19 -10 -35 -14 -35 -4 0 -4 16 0 35 8 35 8 35
-26 35 -27 0 -36 -6 -49 -29z m47 -6 c-5 -28 -22 -44 -22 -21 0 21 11 46 20
46 4 0 5 -11 2 -25z"/>
<path d="M340 116 c0 -7 -3 -28 -6 -45 -6 -26 -3 -31 13 -31 10 0 25 6 32 12
11 10 13 10 7 1 -5 -9 3 -13 28 -13 25 0 36 4 36 15 0 8 -4 15 -10 15 -5 0
-10 -4 -10 -10 0 -5 -5 -10 -11 -10 -6 0 -2 12 9 28 36 51 36 52 -2 52 -25 0
-36 -4 -36 -15 0 -8 5 -15 10 -15 6 0 10 5 10 12 0 6 3 9 6 6 9 -10 -19 -46
-39 -52 -17 -4 -18 -1 -13 30 6 27 4 34 -9 34 -8 0 -15 -6 -15 -14z"/>
<path d="M472 118 c-7 -7 -12 -27 -12 -46 0 -30 2 -33 27 -30 17 2 32 12 39
27 7 13 18 28 26 33 10 8 9 8 -4 4 -12 -3 -18 0 -18 9 0 18 -41 20 -58 3z m29
-51 c-13 -13 -15 11 -4 40 7 16 8 15 11 -6 2 -13 -1 -28 -7 -34z"/>
</g>
</svg>
